<svg id="43483f30-6550-48b6-9e2b-3bdf429d3170" data-name="Ğ¡Ğ»Ğ¾Ğ¹ 1" xmlns="http://www.w3.org/2000/svg" viewBox="0 0 241.62 241.62"><title>Message</title><circle cx="120.81" cy="120.81" r="120.81" fill="#bcd6fb"/><path d="M1312.26,239.25v-5.77a10.8,10.8,0,0,0-10.78-10.79H1199.19a10.8,10.8,0,0,0-10.78,10.79v5.77h0v57.27a10.8,10.8,0,0,0,10.78,10.79h102.29a10.8,10.8,0,0,0,10.78-10.79V239.25Zm-113.07-8.56h102.29a2.79,2.79,0,0,1,2.78,2.79v3.24l-53.93,23.9-53.92-23.9v-3.24A2.79,2.79,0,0,1,1199.19,230.69Zm102.29,68.62H1199.19a2.79,2.79,0,0,1-2.78-2.79v-51l52.3,23.19a4,4,0,0,0,1.62.34,3.92,3.92,0,0,0,1.62-.34l52.31-23.19v51A2.79,2.79,0,0,1,1301.48,299.31Z" transform="translate(-1129.52 -144.19)"/></svg>