<svg id="20c12caf-9e56-4505-a873-6b90d830c132" data-name="Слой 1" xmlns="http://www.w3.org/2000/svg" viewBox="0 0 241.62 241.62"><title>Download</title><circle cx="120.81" cy="120.81" r="120.81" fill="#bcd6fb"/><path d="M455.83,312.14H366.17a4,4,0,0,1-4-4v-24a4,4,0,0,1,8,0v20h81.66v-20a4,4,0,0,1,8,0v24A4,4,0,0,1,455.83,312.14Z" transform="translate(-290.19 -144.19)"/><path d="M446.51,249.57a4,4,0,0,0-5.61-.66l-26.28,20.75V207.25a4,4,0,0,0-8,0v62.26l-25.47-20.7a4,4,0,0,0-5,6.21l32,26,0,0,.13.08a3.36,3.36,0,0,0,.57.35l.24.11a3.86,3.86,0,0,0,.54.19l.23.06a4.26,4.26,0,0,0,.8.09h0a4.15,4.15,0,0,0,.78-.09l.21-.05a3.19,3.19,0,0,0,.59-.21l.13,0,.1,0,.21-.13c.12-.07.24-.14.35-.22l.1-.07,32.75-25.87A4,4,0,0,0,446.51,249.57Z" transform="translate(-290.19 -144.19)"/></svg>