<svg id="1ceba486-ca0f-46bc-8eec-b0f37be8a8bc" data-name="Слой 1" xmlns="http://www.w3.org/2000/svg" viewBox="0 0 241.62 241.62"><title>Question</title><circle cx="120.81" cy="120.81" r="120.81" fill="#bcd6fb"/><path d="M795,295.71a5.24,5.24,0,0,1-3.88-1.53,5.4,5.4,0,0,1-1.53-4,30.56,30.56,0,0,1,2.71-11.92,32.08,32.08,0,0,1,7.55-10.95q4.3-4,8.18-7.77a32.74,32.74,0,0,0,6.31-8.32,24.34,24.34,0,0,0,2.43-11.5,19.28,19.28,0,0,0-2.64-9.92,19.07,19.07,0,0,0-7.41-7.14A22.88,22.88,0,0,0,795.55,220a23.76,23.76,0,0,0-11.92,2.84,19.59,19.59,0,0,0-7.69,7.84,23.66,23.66,0,0,0-2.71,11.5,5,5,0,0,1-5.27,5.27,5.4,5.4,0,0,1-3.88-1.45,5,5,0,0,1-1.52-3.82,33.28,33.28,0,0,1,4.16-16.84,29.93,29.93,0,0,1,11.57-11.44,34.75,34.75,0,0,1,17.26-4.16,33.5,33.5,0,0,1,16.36,3.95,29.35,29.35,0,0,1,15.53,26.55,28.55,28.55,0,0,1-2.77,13.17,39.6,39.6,0,0,1-7.28,9.92q-4.5,4.5-9.91,9.49a18.65,18.65,0,0,0-5.69,8.74,31.87,31.87,0,0,0-1.38,8.59,5.4,5.4,0,0,1-1.53,4A5.25,5.25,0,0,1,795,295.71Zm0,24.54a7.64,7.64,0,0,1-5.75-2.36,8.27,8.27,0,0,1,.07-11.5A7.74,7.74,0,0,1,795,304a8,8,0,0,1,5.75,2.36,7.78,7.78,0,0,1,2.43,5.82,7.62,7.62,0,0,1-2.43,5.68A7.92,7.92,0,0,1,795,320.25Z" transform="translate(-674.19 -144.19)"/></svg>