<svg id="Слой_1" data-name="Слой 1" xmlns="http://www.w3.org/2000/svg" viewBox="0 0 139.09 137.9"><defs><style>.cls-1,.cls-3{fill:#fff;}.cls-1{opacity:0.3;}.cls-2{fill:#f58220;}.cls-4{fill:#fbb15d;}.cls-5{opacity:0.6;}.cls-6{fill:#231f20;}.cls-7{fill:#ffddb6;}</style></defs><title>[qtgdf</title><path class="cls-1" d="M203.26,242.77c3,1.63,7,4.44,8.86,9.1,2,5.09.29,9.45-.79,16.58a79.14,79.14,0,0,0-.29,20.89,65.31,65.31,0,0,1-7.78-46.57Z" transform="translate(-180.47 -181.06)"/><rect class="cls-2" x="186.52" y="189.17" width="51.72" height="11.13" rx="5.57" ry="5.57" transform="translate(-84.92 -249.72) rotate(23.56)"/><polygon class="cls-3" points="56.74 79.82 54.97 79.58 54.97 80.17 56.74 79.82"/><rect class="cls-2" x="5.94" y="113.46" width="51.72" height="11.13" rx="5.57" ry="5.57"/><path class="cls-4" d="M312.47,266.5a33.45,33.45,0,0,0-28.73-15.08l-30.29-15.09H204.73a67.08,67.08,0,0,0-1.12,34c6.52,28,29.47,41.69,34,44.26h65.9S332.58,298.82,312.47,266.5Z" transform="translate(-180.47 -181.06)"/><rect class="cls-4" x="10.97" y="122.43" width="51.72" height="11.13" rx="5.57" ry="5.57"/><rect class="cls-4" x="180.29" y="189.61" width="51.72" height="11.13" rx="5.57" ry="5.57" transform="translate(-152.73 -206.71) rotate(7.63)"/><path class="cls-2" d="M259.32,293.2a1.43,1.43,0,0,1-1.4-1.13c-.07-.32-1.66-7.79,3.5-12.88,4.76-4.71,13.47-5.62,25.88-2.71a1.44,1.44,0,1,1-.66,2.8c-11.22-2.63-19.25-2-23.2,2s-2.73,10.16-2.72,10.22a1.44,1.44,0,0,1-1.09,1.71A1.76,1.76,0,0,1,259.32,293.2Z" transform="translate(-180.47 -181.06)"/><path class="cls-1" d="M219.12,277.5c.17-1.48.41-2.86.69-4.17l-2.29-12.51,4,6.21c2.14-6.57,4.47-11.15,2.63-16.59-1.49-4.42-5.91-10-19.47-14a67.14,67.14,0,0,0,.72,40.22,66.41,66.41,0,0,0,17.39,26.93A54.09,54.09,0,0,1,219.12,277.5Z" transform="translate(-180.47 -181.06)"/><rect class="cls-4" x="66.46" y="122.43" width="51.72" height="11.13" rx="3.87" ry="3.87"/><path class="cls-4" d="M243,194.52l-38.27-5.23a40.35,40.35,0,0,0,0,47h75.42c8.11,0,16.07-4.39,22.05-10.12a5.55,5.55,0,0,0-2.62-9.4l-28.94-6.73a7.71,7.71,0,0,1-3.53-2.35h0A38.45,38.45,0,0,0,243,194.52Z" transform="translate(-180.47 -181.06)"/><g class="cls-5"><path class="cls-3" d="M299.58,216.79l-19.52-4.54a9.1,9.1,0,0,1-.31,3.94,9.69,9.69,0,0,1-1,2.1c-1.26,2-22,9.33-50.88,18h52.25c8.11,0,16.07-4.39,22.05-10.13A5.55,5.55,0,0,0,299.58,216.79Z" transform="translate(-180.47 -181.06)"/></g><path class="cls-6" d="M299.56,216.67h0a3.21,3.21,0,0,0-3.76,4.19,12.17,12.17,0,0,1,.71,3.16,3.32,3.32,0,0,0,5.58,2.15l.14-.14A5.55,5.55,0,0,0,299.56,216.67Z" transform="translate(-180.47 -181.06)"/><path class="cls-6" d="M252.5,303.49a5.57,5.57,0,0,0-5.57,5.57h0a5.56,5.56,0,0,0,5.57,5.56Z" transform="translate(-180.47 -181.06)"/><polygon class="cls-2" points="103.27 70.36 47.42 55.28 72.98 55.28 103.27 70.36"/><circle class="cls-6" cx="63.04" cy="30.06" r="7.73"/><circle class="cls-3" cx="59.14" cy="27.99" r="3.07"/><path d="M277.67,232.74a8.24,8.24,0,0,1-6.39-3.24,2.15,2.15,0,0,1,3.48-2.53c.51.67,2.43,2.68,5.7.42a2.16,2.16,0,1,1,2.45,3.55A9.21,9.21,0,0,1,277.67,232.74Z" transform="translate(-180.47 -181.06)"/><path class="cls-2" d="M303,302.77c-8.37-.71-12.84-3.79-20.83-6.7-2.67-1-14.39-5.24-23.46-4.79-2.23.11-8.13.7-15.6,5.77l7.94,2.13h0a29.26,29.26,0,0,0-21.76,11.51q-1.38,1.85-2.78,3.93a172.56,172.56,0,0,1,21.43.48c9.73.83,10.8,1.75,18.95,2.62,14.54,1.54,29,3.08,40-5a31.39,31.39,0,0,0,9.18-10.95A41,41,0,0,1,303,302.77Z" transform="translate(-180.47 -181.06)"/><path class="cls-6" d="M244.54,193.81l4.91,9.21,10.37,1.17a1.15,1.15,0,0,1,.7,1.95l-7.24,7.52,2.09,10.22a1.16,1.16,0,0,1-1.64,1.27l-9.38-4.56-9.08,5.15a1.16,1.16,0,0,1-1.72-1.17L235,214.23l-7.7-7a1.16,1.16,0,0,1,.58-2l10.28-1.83,4.32-9.5A1.15,1.15,0,0,1,244.54,193.81Z" transform="translate(-180.47 -181.06)"/><path class="cls-3" d="M232.45,207.93a.53.53,0,0,1-.32-.4.54.54,0,0,1,.43-.63l7.42-1.41,2.78-6.15a.59.59,0,0,1,.71-.27.54.54,0,0,1,.27.71l-2.9,6.41a.54.54,0,0,1-.39.31L232.76,208A.54.54,0,0,1,232.45,207.93Z" transform="translate(-180.47 -181.06)"/><path class="cls-3" d="M236.79,221.79a.56.56,0,0,1-.33-.58l.78-5a.54.54,0,0,1,.61-.45.53.53,0,0,1,.45.62l-.77,5a.55.55,0,0,1-.62.45Z" transform="translate(-180.47 -181.06)"/><path class="cls-3" d="M250.06,206.81a.54.54,0,0,1,.25-1l6.28.56a.54.54,0,1,1-.09,1.07l-6.28-.56A.29.29,0,0,1,250.06,206.81Z" transform="translate(-180.47 -181.06)"/><path class="cls-7" d="M239.12,313.34a29.23,29.23,0,0,1,21.76-11.5l-7.95-2.13c7.48-5.07,13.38-5.66,15.61-5.77a42.75,42.75,0,0,1,10.39,1c-4.8-1.59-13.27-4-20.21-3.66-2.23.11-8.13.7-15.6,5.77l7.94,2.13a29.26,29.26,0,0,0-21.76,11.51q-1.38,1.85-2.78,3.93c3.07-.12,7-.19,11.71-.06C238.53,314.15,238.82,313.74,239.12,313.34Z" transform="translate(-180.47 -181.06)"/><path class="cls-1" d="M274.15,304.4l7.94,2.13a29.3,29.3,0,0,0-20.89,10.4A119,119,0,0,0,248,315.09c-3.49-.3-6.74-.46-9.71-.55l.87-1.22a29.37,29.37,0,0,1,21.77-11.5l-7.95-2.13c7.47-5.07,13.38-5.66,15.61-5.78a44,44,0,0,1,10.35,1H279c1.48.49,2.61.91,3.24,1.14,2.44.89,4.56,1.79,6.55,2.64C286,299,280.68,300,274.15,304.4Z" transform="translate(-180.47 -181.06)"/><path class="cls-7" d="M202.87,244.21c3.28,1,7.39,2.89,9.34,6.73,2.55,5.05-.29,10.16-1.53,17.33-1,5.51-1.16,13.38,2.27,23.58a63.94,63.94,0,0,1-10.08-47.64Z" transform="translate(-180.47 -181.06)"/><path class="cls-6" d="M197,303.49a5.57,5.57,0,1,0,0,11.13h2.82V303.49Z" transform="translate(-180.47 -181.06)"/><path class="cls-6" d="M191.9,294.51a5.57,5.57,0,0,0,0,11.14h2.82V294.51Z" transform="translate(-180.47 -181.06)"/></svg>